<svg width="1024" height="1024" viewBox="0 0 1024 1024" fill="none" xmlns="http://www.w3.org/2000/svg">
  <defs>
    <radialGradient id="bg" cx="0" cy="0" r="1" gradientUnits="userSpaceOnUse" gradientTransform="translate(512 512) rotate(90) scale(430)">
      <stop offset="0" stop-color="#2A0A0E"/>
      <stop offset="0.58" stop-color="#0D0D0D"/>
      <stop offset="1" stop-color="#020202"/>
    </radialGradient>
    <linearGradient id="outerRing" x1="180" y1="180" x2="844" y2="844" gradientUnits="userSpaceOnUse">
      <stop offset="0" stop-color="#FCA5A5"/>
      <stop offset="0.46" stop-color="#DC2626"/>
      <stop offset="1" stop-color="#F8FAFC"/>
    </linearGradient>
    <linearGradient id="innerRing" x1="844" y1="180" x2="180" y2="844" gradientUnits="userSpaceOnUse">
      <stop offset="0" stop-color="#7F1D1D"/>
      <stop offset="1" stop-color="#E5E7EB"/>
    </linearGradient>
    <linearGradient id="core" x1="512" y1="280" x2="512" y2="748" gradientUnits="userSpaceOnUse">
      <stop offset="0" stop-color="#161616"/>
      <stop offset="1" stop-color="#050505"/>
    </linearGradient>
    <linearGradient id="aStroke" x1="430" y1="410" x2="610" y2="620" gradientUnits="userSpaceOnUse">
      <stop offset="0" stop-color="#FCA5A5"/>
      <stop offset="1" stop-color="#FFFFFF"/>
    </linearGradient>
    <filter id="glow" x="-40%" y="-40%" width="180%" height="180%">
      <feGaussianBlur stdDeviation="6" result="blur"/>
      <feMerge>
        <feMergeNode in="blur"/>
        <feMergeNode in="SourceGraphic"/>
      </feMerge>
    </filter>
  </defs>

  <circle cx="512" cy="512" r="470" fill="url(#bg)"/>
  <circle cx="512" cy="512" r="470" stroke="#4C111A" stroke-width="4"/>

  <circle cx="512" cy="512" r="402" stroke="url(#outerRing)" stroke-width="14"/>
  <circle cx="512" cy="512" r="364" stroke="url(#innerRing)" stroke-width="6" stroke-dasharray="14 14"/>
  <circle cx="512" cy="512" r="430" stroke="#7A1A23" stroke-width="1.5" stroke-dasharray="4 20" opacity="0.55"/>

  <g opacity="0.78" stroke="#D1D5DB" stroke-width="2.5" stroke-linecap="round">
    <path d="M512 82V108"/>
    <path d="M512 916V942"/>
    <path d="M82 512H108"/>
    <path d="M916 512H942"/>
  </g>

  <g opacity="0.42" stroke="#8B1E2A" stroke-width="2">
    <ellipse cx="512" cy="512" rx="270" ry="148"/>
    <ellipse cx="512" cy="512" rx="270" ry="148" transform="rotate(60 512 512)"/>
    <ellipse cx="512" cy="512" rx="270" ry="148" transform="rotate(-60 512 512)"/>
  </g>

  <g opacity="0.4">
    <circle cx="512" cy="512" r="286" stroke="#272727" stroke-width="2"/>
    <path d="M512 226V798" stroke="#272727" stroke-width="2"/>
    <path d="M226 512H798" stroke="#272727" stroke-width="2"/>
  </g>

  <g>
    <path d="M512 286L676 380V554C676 684 588 788 512 824C436 788 348 684 348 554V380L512 286Z" fill="url(#core)" stroke="url(#outerRing)" stroke-width="8"/>
    <path d="M512 374L590 420V520C590 588 544 646 512 665C480 646 434 588 434 520V420L512 374Z" fill="#0A0A0A" stroke="#EF4444" stroke-width="5"/>

    <path d="M458 612H566" stroke="#9CA3AF" stroke-width="2" stroke-linecap="round" opacity="0.7"/>
    <circle cx="458" cy="612" r="4" fill="#EF4444"/>
    <circle cx="566" cy="612" r="4" fill="#F3F4F6"/>

    <path d="M512 430L442 562H468L486 528H538L556 562H582L512 430Z" fill="none" stroke="url(#aStroke)" stroke-width="8" stroke-linejoin="round"/>
    <path d="M497 503H527" stroke="#FCA5A5" stroke-width="6" stroke-linecap="round"/>
    <circle cx="512" cy="494" r="6" fill="#DC2626" filter="url(#glow)"/>
  </g>

  <g stroke-width="6" stroke-linecap="round" filter="url(#glow)">
    <path d="M512 286V214" stroke="#F87171"/>
    <path d="M348 430L278 400" stroke="#DC2626"/>
    <path d="M676 430L746 400" stroke="#F3F4F6"/>
    <path d="M404 730L342 784" stroke="#F87171"/>
    <path d="M620 730L682 784" stroke="#E5E7EB"/>
  </g>

  <g>
    <circle cx="512" cy="214" r="18" fill="#070707" stroke="#F87171" stroke-width="6"/>
    <circle cx="278" cy="400" r="18" fill="#070707" stroke="#DC2626" stroke-width="6"/>
    <circle cx="746" cy="400" r="18" fill="#070707" stroke="#F3F4F6" stroke-width="6"/>
    <circle cx="342" cy="784" r="18" fill="#070707" stroke="#F87171" stroke-width="6"/>
    <circle cx="682" cy="784" r="18" fill="#070707" stroke="#E5E7EB" stroke-width="6"/>

    <circle cx="512" cy="214" r="5" fill="#F3F4F6"/>
    <circle cx="278" cy="400" r="5" fill="#F87171"/>
    <circle cx="746" cy="400" r="5" fill="#FFFFFF"/>
    <circle cx="342" cy="784" r="5" fill="#FCA5A5"/>
    <circle cx="682" cy="784" r="5" fill="#F3F4F6"/>
  </g>

  <g opacity="0.5">
    <rect x="500" y="92" width="24" height="8" rx="2" fill="#E5E7EB"/>
    <rect x="500" y="924" width="24" height="8" rx="2" fill="#E5E7EB"/>
    <rect x="92" y="500" width="8" height="24" rx="2" fill="#E5E7EB"/>
    <rect x="924" y="500" width="8" height="24" rx="2" fill="#E5E7EB"/>
  </g>

  <g opacity="0.4">
    <circle cx="404" cy="254" r="2.2" fill="#FCA5A5"/>
    <circle cx="598" cy="248" r="2.2" fill="#E5E7EB"/>
    <circle cx="758" cy="514" r="2.2" fill="#FCA5A5"/>
    <circle cx="622" cy="822" r="2.2" fill="#E5E7EB"/>
    <circle cx="402" cy="828" r="2.2" fill="#FCA5A5"/>
    <circle cx="260" cy="514" r="2.2" fill="#E5E7EB"/>
  </g>
</svg>
